<svg xmlns="http://www.w3.org/2000/svg" viewBox="0 0 21.98 26"><defs><style>.cls-1{fill:#fff;}</style></defs><g id="Layer_2" data-name="Layer 2"><g id="login_2" data-name="login 2"><path d="M18.64,8.8H18C17.87,3.75,14.9,0,11,0s-6.88,3.75-7,8.8h-.6A3.33,3.33,0,0,0,0,12.12V22.68A3.33,3.33,0,0,0,3.34,26h15.3A3.34,3.34,0,0,0,22,22.68V12.12A3.34,3.34,0,0,0,18.64,8.8ZM11,2.64c1.38,0,3.35,2.39,3.5,6.16h-7C7.63,5,9.6,2.64,11,2.64Z"/><path class="cls-1" d="M13,15.24a1.91,1.91,0,0,0-2-1.79,1.9,1.9,0,0,0-2,1.79,1.76,1.76,0,0,0,1,1.55v3.83a1,1,0,0,0,2,0V16.79A1.78,1.78,0,0,0,13,15.24Z"/></g></g></svg>